<svg width="500" height="500" viewBox="0 0 500 500" fill="none" xmlns="http://www.w3.org/2000/svg">
<g clip-path="url(#clip0_99_338)">
<path d="M550 -50H-50V550H550V-50Z" fill="white"/>
<path d="M550 -50H-50V550H550V-50Z" fill="white"/>
<path d="M550 -50H-50V550H550V-50Z" fill="white"/>
<mask id="mask0_99_338" style="mask-type:luminance" maskUnits="userSpaceOnUse" x="129" y="84" width="242" height="243">
<path d="M129 84.9844H371V326.984H129V84.9844Z" fill="white"/>
</mask>
<g mask="url(#mask0_99_338)">
<path d="M371 209.083V205.984C371 139.266 316.719 84.9844 250 84.9844C183.281 84.9844 129 139.266 129 205.984C129 272.703 183.281 326.984 250 326.984H371V271.135H250C214.078 271.135 184.849 241.906 184.849 205.984C184.849 170.062 214.078 140.833 250 140.833C285.922 140.833 315.151 170.062 315.151 205.984V209.083H371Z" fill="#3573EB"/>
</g>
<path d="M86.5518 401.269C93.057 401.269 98.7445 397.55 101.536 392.081L94.3174 388.42C92.8955 391.263 90.0518 393.065 86.5518 393.065C81.5726 393.065 77.8538 389.404 77.8538 384.425C77.8538 379.451 81.5726 375.784 86.5518 375.784C90.0518 375.784 92.8955 377.591 94.3174 380.435L101.536 376.769C98.7445 371.3 93.057 367.581 86.5518 367.581C77.1976 367.581 69.708 375.128 69.708 384.425C69.708 393.722 77.1976 401.269 86.5518 401.269Z" fill="#3573EB"/>
<path d="M132.798 400.831H141.766L129.902 368.019H120.548L108.683 400.831H117.704L119.511 395.091H130.996L132.798 400.831ZM121.641 388.31L125.251 376.716L128.917 388.31H121.641Z" fill="#3573EB"/>
<path d="M168.93 387.815C172.706 386.503 175.331 382.841 175.331 378.357C175.331 372.67 171.118 368.019 165.269 368.019H150.665V400.831H159.034V388.8H160.946L168.602 400.831H178.008L168.93 387.815ZM163.899 382.076H159.034V375.295H163.899C165.868 375.295 167.29 376.716 167.29 378.685C167.29 380.654 165.868 382.076 163.899 382.076Z" fill="#3573EB"/>
<path d="M207.964 375.295V368.019H187.62V400.831H207.964V393.56H195.985V388.034H206.104V380.815H195.985V375.295H207.964Z" fill="#3573EB"/>
<path d="M240.27 375.295V368.019H219.926V400.831H240.27V393.56H228.29V388.034H238.41V380.815H228.29V375.295H240.27Z" fill="#3573EB"/>
<path d="M270.221 387.815C273.997 386.503 276.622 382.841 276.622 378.357C276.622 372.67 272.408 368.019 266.559 368.019H251.955V400.831H260.325V388.8H262.236L269.893 400.831H279.299L270.221 387.815ZM265.189 382.076H260.325V375.295H265.189C267.158 375.295 268.58 376.716 268.58 378.685C268.58 380.654 267.158 382.076 265.189 382.076Z" fill="#3573EB"/>
<path d="M297.005 393.56V368.019H288.635V400.831H307.447V393.56H297.005Z" fill="#3573EB"/>
<path d="M332.975 401.269C342.272 401.269 349.819 393.722 349.819 384.425C349.819 375.128 342.272 367.581 332.975 367.581C323.621 367.581 316.131 375.128 316.131 384.425C316.131 393.722 323.621 401.269 332.975 401.269ZM332.975 393.065C327.996 393.065 324.277 389.404 324.277 384.425C324.277 379.451 327.996 375.784 332.975 375.784C337.897 375.784 341.616 379.451 341.616 384.425C341.616 389.404 337.897 393.065 332.975 393.065Z" fill="#3573EB"/>
<path d="M377.088 382.623V389.019H384.583C383.051 391.482 380.369 393.065 377.145 393.065C372.166 393.065 368.447 389.404 368.447 384.425C368.447 379.451 372.166 375.784 377.145 375.784C380.645 375.784 383.489 377.591 384.911 380.435L392.129 376.769C389.338 371.3 383.65 367.581 377.145 367.581C367.791 367.581 360.301 375.128 360.301 384.425C360.301 393.722 367.791 401.269 377.145 401.269C386.442 401.269 393.989 393.722 393.989 384.425V382.623H377.088Z" fill="#3573EB"/>
<path d="M433.07 368.019H423.883L417.43 378.3L410.977 368.019H401.685L413.222 385.409V400.831H421.586V385.357L433.07 368.019Z" fill="#3573EB"/>
</g>
<defs>
<clipPath id="clip0_99_338">
<rect width="500" height="500" fill="white"/>
</clipPath>
</defs>
</svg>
